<svg xmlns="http://www.w3.org/2000/svg" width="40" height="30" viewBox="0 0 40 30">
  <defs>
    <style>
      .cls-1 {
        fill: #0b70d4;
        fill-rule: evenodd;
      }
    </style>
  </defs>
  <path id="大象_1" data-name="大象 1" class="cls-1" d="M16.735,2.536l0.3,0.2-0.9.9-0.2-.2,0.2-.2Zm-1.205.1h0.3l-0.2.3a3.4,3.4,0,0,1-1.406,1.407l-0.2-.4A3.741,3.741,0,0,0,15.529,2.636Zm-1.406.1h0.2l-0.2.4a2.035,2.035,0,0,1-1.908,0Zm3.717,0h0.5A9.682,9.682,0,0,1,15.73,5.351C16,4.178,17.077,3.446,17.84,2.737Zm1.808,0.2,0.6,0.1-0.2.1a1.473,1.473,0,0,1-1.306.5l0.2-.3Zm1.909,0.4,1.205,0.1v0.1a7.476,7.476,0,0,0-2.612.8l-0.2-.4h0.2ZM9.8,3.943l3.616,0.2v0.3h-0.8L9.2,4.245H9.4Zm8.237,0.2,0.4,0.2a3.363,3.363,0,0,1-1.406,1.407A6.816,6.816,0,0,1,18.04,4.144Zm-2.813.1h0.3a2.733,2.733,0,0,1-1.205,1.407,34.094,34.094,0,0,0-8.337.6c2.067-2.149,5.729-.158,8.237-1.106Zm7.031,0c2.488-.059,4.754.626,5.826,2.011v0.1c-1.614-.519-3.072-2.186-5.725-1.709l-2.712.9V5.25Zm-2.913.2,0.3,0.4-1.205.8-0.2-.2,0.3-.4Zm3.616,0.7c1.382-.073,2.834.059,3.214,1.005a13.155,13.155,0,0,0-4.621-.3c0.133-.385,0-0.209.3-0.4Zm-7.734.8,0.3,0.2-0.2.3c-1.737.511-4.223,0.077-6.328,0.2v-0.4C10.859,6.205,14.2,6.847,15.228,5.954Zm5.424,0c0.3,0.194.163,0.021,0.3,0.4-1.969.808-2.675,3.343-4.621,4.323C12.819,12.447,7.36,8.587,5.987,13.594h-0.4a3.548,3.548,0,0,1,1.306-1.809c2.711-2.7,5.779-.116,9.141-1.407C17.819,9.69,19.4,7.295,20.652,5.954Zm-4.018.1,0.3,0.2c-1.789,3.009-5.9.414-9.04,1.709a8.524,8.524,0,0,0-4.721,4.624L2.571,14.8l-0.2-.1C2.459,10.728,5.725,7.968,9.1,7.261,12.077,6.636,14.933,8.6,16.634,6.054Zm1.205,0,0.3,0.2-0.2.2c-2.35,5.092-11.719-.79-13.761,6.534h-0.4A6.845,6.845,0,0,1,11.11,8.266a9.722,9.722,0,0,0,3.817.2A5.707,5.707,0,0,0,17.84,6.054Zm1.306,0c0.293,0.382.249,0.364-.2,0.7-1.2,2.612-3.535,3.118-7.232,3.116a5.4,5.4,0,0,1-2.411-.2l0.1-.2C15.232,9.565,16.616,9.5,19.145,6.054Zm4.018,0,1.1,0.1,0.2,0.4c-6.2-.024-5.461,6.695-12.355,5.428l-0.1-.2,0.2-.2c4.717,1.315,5.97-2.673,8.237-4.423A13.807,13.807,0,0,1,23.163,6.054Zm3.415,0.3c2.8,0.673,2.486,4.864,1.808,7.439l-0.4-.2c0.737-1.839.935-4.24-.2-5.831ZM7.9,6.456c0.422,0.155.246-.019,0.4,0.4A6.785,6.785,0,0,0,5.083,8.467c-0.36-.179-0.119.053-0.3-0.3A22.539,22.539,0,0,0,7.9,6.456Zm17.277,0a7.537,7.537,0,0,1,2.21,1.809l-0.4.2c-0.412-.862-1.32-1.136-1.908-1.809Zm3.214,0.1c1.827,0.856,2.379,5.531,1,7.339l-0.2-.1v-0.1c0.392-1.445.915-3.368,0.3-5.026Zm-6.228.7c9.774-.3,2.085,11.416-1.708,12.264l-0.1-.4c2.087-.465,7.968-6.95,5.826-10.153-1.12-1.675-2.783-.709-4.118-1.508Zm-1,.5h0.3c-0.461,1.7-3.928,4.8-5.826,5.227-1.064.241-3.459,0.3-3.817-.5h0.1C16.753,13.94,19.423,10.171,21.154,7.763Zm1.607,0.5c2.875-.063,3.727,2.038,2.712,4.423C24.4,15.221,17.791,22.4,13.822,20.028A11.6,11.6,0,0,0,23.967,14.4c0.872-1.322,2.172-3.322,1.1-5.127-4.846-1.987-4.587,3.5-8.438,4.423l-0.1-.2,2.21-1.407C20.366,10.8,20.642,9.24,22.761,8.266Zm-18.583.4h0.3c-0.528,1.664-2.209,2.3-2.511,4.423h-0.4v-0.4A15.151,15.151,0,0,1,4.179,8.668Zm23.2,0.3,0.4,0.2c0.221,2.251-.043,5.525-1.708,6.132V15A9.011,9.011,0,0,0,27.382,8.97Zm-4.42.1a1.5,1.5,0,0,1,1.607.7c1.608,1.659-1.7,5.572-2.612,6.233l-0.3-.1v-0.1c0.867-.626,3.922-4.214,2.712-5.73a2.059,2.059,0,0,0-.6-0.6c-2.181.028-2.657,2.022-3.917,3.016h-0.1v-0.4C20.936,11.079,21.53,9.9,22.962,9.07Zm7.735,0.3,0.3,0.1a16.059,16.059,0,0,1,.1,3.518l-0.4-.1V9.372Zm-22.5.4,0.4,0.2-0.1.2a5.955,5.955,0,0,0-3.415,8.143l1.306,1.91c-1.015-.316-1.328-1.336-1.708-2.312C3.045,13.711,5.823,11.532,8.2,9.774Zm14.766,0.3,0.5,0.1,0.6,0.4a2.646,2.646,0,0,1-.3,1.709h-0.3l-0.1-.2a1.25,1.25,0,0,0,.1-1.609h-0.1C21.8,10.8,20.982,13.1,19.848,14L17.237,15.6l-0.2-.4C19.792,14.32,21,11.771,22.962,10.075Zm-0.1,1.106,0.3,0.3c-2.144,2.475-4.118,5.484-8.538,5.63v-0.4C18.566,16.675,21.306,13.714,22.862,11.181Zm-13.058.2,1.306,0.1,0.1,0.3c-4.611-.151-5.145,3.339-3.717,6.534l-0.5-.1C5.41,14.43,6.6,12.852,9.8,11.382Zm22.2,0.7c0.671,1.1-.3,3.747-1.205,4.021C31.109,14.875,31.654,13.551,32,12.086Zm-22.1.3a2.03,2.03,0,0,1,1.507.3v0.1C8.18,12.673,6.041,15.8,8.5,17.816c3.653,3,9.851.316,12.556-1.508l0.2,0.4c-2.649,1.191-5.5,3.665-9.944,2.714C6.93,18.487,5.473,14.473,9.9,12.388Zm12.857,0.4h0.4c-0.288,1.413-5.55,6-6.73,4.825C18.752,17.033,22.162,15.037,22.761,12.79Zm-3.717.1h0.3v0.4c-1.329.613-2.339,1.483-4.118,1.81L9.9,15a0.745,0.745,0,0,0,0,.9c0.689,0.752,3.585.333,4.018,1.206H12.415a12.9,12.9,0,0,1-2.913-.9A1.417,1.417,0,0,1,10,14.5C13.313,14.735,17.339,15.051,19.045,12.89Zm-17.578.6,0.3,0.1a10.032,10.032,0,0,0,1.908,7.942v0.1h-0.4C2.085,19.825.3,16.674,1.467,13.493Zm2.009,0h0.3l0.1,0.2c-2.121,3.161,1.757,7.237,3.415,8.243l-0.1.2H6.79C4.708,19.74,2.09,18.262,3.475,13.493Zm6.127,0c2.692,0.144,3.908.457,6.328,0l-0.1.4c-2.094.527-5.634-.435-7.031,0.7l-0.2-.2A2.385,2.385,0,0,1,9.6,13.493Zm20.893,0.2,0.2,0.1a10.429,10.429,0,0,1-4.319,6.534h-0.3l1.306-1.307,1.507-1.91ZM5.384,14l0.4,0.2C4.655,17.352,7.034,19.884,9.6,20.43v0.1H9.4l-0.3.2C6.539,19.25,4.751,18.074,5.384,14Zm23.5,0.3,0.3,0.2a12.757,12.757,0,0,1-4.621,5.831l-0.2-.4C26.282,19.035,28.061,16.289,28.889,14.3Zm-1.306.2,0.4,0.2a9.535,9.535,0,0,1-2.21,2.915h-0.3v-0.1C26.143,16.471,27.148,15.8,27.583,14.5ZM32.5,14.6l0.2,0.1c-0.081,1.3-.742,2.056-1.1,3.116l-0.4-.2Zm6.127,0.1,0.3,0.1a23.169,23.169,0,0,1-1.708,6.233l-0.4-.2C37.838,19.079,37.924,16.952,38.632,14.7Zm1,0,0.4,0.2-0.1.9h-0.3V14.7ZM8.4,14.8L8.8,15c-1.021,3.476,4.488,3.031,6.931,2.614l0.1,0.4C12.451,18.239,7.778,18.9,8.4,14.8Zm29.13,0.5c0.317,0.152-.057,1.215-0.1,1.709l-0.4-.2A4.655,4.655,0,0,1,37.527,15.3Zm-35.157.1c0.624,0.508.389,2.53,0.7,3.317,0.755,1.894,2.218,2.613,3.516,3.921l-0.2.2C4.425,21.812,1.446,18.8,2.371,15.4Zm8.036,0.1a51.484,51.484,0,0,0,6.127,0l0.1,0.1-0.2.3C15.069,16.064,11.077,16.839,10.406,15.5Zm15.067,0.4,0.3,0.2c-1.87,2.609-4.738,5.337-8.538,5.931l-0.1-.2v-0.1A14.025,14.025,0,0,0,25.474,15.906Zm-25.313.4,0.8,3.116a11.532,11.532,0,0,0,4.52,5.026l-0.2.2A9.014,9.014,0,0,1,.161,16.308Zm39.275,0.1,0.2,0.2h-0.3Zm-9.141.6h0.3l0.1,0.2-1,1.407-0.2-.1Zm2.31,0.4h0.3v0.4L30.6,20.832l-0.2-.2,0.3-.3Zm4.018,0.7,0.3,0.2-0.3,1.005-0.2-.1v-0.1Zm-11.853.1c0.3,0.194.163,0.021,0.3,0.4-0.949.726-5.705,5.074-7.132,4.122l2.31-.9A14.05,14.05,0,0,0,24.77,18.218Zm6.027,0.1h0.3l-0.2.4L29.692,20.43h-0.1l-0.2-.1a1,1,0,0,1,.5-0.7Zm-22.9.2,1.507,0.9,2.109,0.5c-1.575.376-2.582-.4-3.616-1.106v-0.3Zm25.212,0.1a0.827,0.827,0,0,1-.2.9v0.2H32.5Zm-4.219.2h0.3l0.1,0.2a2.974,2.974,0,0,1-1.205,1.106A4.236,4.236,0,0,1,28.889,18.821Zm9.944,0.2c0.581,1.388-1.094,3.617-1.908,4.122C37.287,21.778,38.325,20.479,38.833,19.022Zm-19.386.7,0.4,0.2a3.614,3.614,0,0,1-1.808.7l-0.1-.2Zm14.063,0.1,0.4,0.2A10.36,10.36,0,0,1,32,22.641l-0.2-.2,0.3-.3Zm2.511,0.2h0.2a9.274,9.274,0,0,1-2.31,3.619l-0.3-.1v-0.1Zm-35.96.1,1.808,2.915,2.411,2.111v0.1C2.614,24.888-.131,21.939.06,20.128Zm6.73,0.1L8.2,21.234v0.1h-0.4A1.439,1.439,0,0,1,6.79,20.229Zm27.724,0,0.3,0.2-0.4.2Zm-2.511.1h0.3l0.1,0.2L30.9,22.34H30.8l-0.1-.2Zm-14.967.1,0.5,0.2-0.1.2c-0.687.115-1.241,0.369-1.708-.1Zm6.73,0.1,0.3,0.2-0.2.3c-1.275.527-2.037,1.663-3.516,2.011l-0.1-.2v-0.1A10.318,10.318,0,0,0,23.766,20.53Zm1.708,0.3c0.213,0.235.044-.011,0.1,0.3-0.939.976-2.465,2.457-3.917,2.815C22.155,22.654,24.516,21.8,25.474,20.832Zm4.621,0.1,0.3,0.2-0.4.4-0.2-.2Zm3.817,0.3a0.686,0.686,0,0,1,.2.5l-1.306,1.608H32.5l0.4-.5Zm2.612,0.1,0.3,0.1a2.843,2.843,0,0,1-1.507,2.212l0.2-.4Zm-32.645.5a5.175,5.175,0,0,1,2.009,1.81,4.247,4.247,0,0,1-2.109-1.608Zm-3.817.7,2.21,2.413,2.813,2.011v0.1C3.7,26.874.014,23.667,0.06,22.541Zm24.811,0.2h0.3a2.609,2.609,0,0,1-1.607,1.307l-0.2-.2,0.1-.2Zm-5.625.6,0.4,0.2-0.7.4-0.4-.2Zm1.507,0.7,0.4,0.2-0.1.2c-0.572.236-1.444,0.806-2.009,0.4v-0.1A3.829,3.829,0,0,0,20.753,24.049Zm1.909,0.1,0.4,0.2-3.516,1.709-0.2-.4Zm1.708,0.1h0.3c-0.365,1.011-3.2,2.272-4.319,2.513l-0.1-.2,0.1-.2Zm-24.308.1a0.36,0.36,0,0,1,.2.3H0.06v-0.3Zm0.5,0.7,3.013,2.312h-0.5C2.267,26.881.862,26.017,0.562,25.054Zm24.409,0.1,0.2,0.2-0.2.3-1,.4-0.1-.2,0.1-.2Zm-2.009.9c0.3,0.194.163,0.02,0.3,0.4-0.683.3-1.461,1.17-2.411,0.8h0.2Zm2.009,0c0.207,0.2.1,0.038,0.2,0.4l-1.205.9h-0.6l0.1-.2Zm-24.911.1,0.8,0.8-0.2.2-0.7-.8Zm1.205,1.106a0.383,0.383,0,0,1,.2.2Z"/>
</svg>
