<svg xmlns="http://www.w3.org/2000/svg" width="122" height="32" viewBox="0 0 122 32">
  <defs>
    <style>
      .cls-1 {
        fill: #0b70d4;
        fill-rule: evenodd;
      }
    </style>
  </defs>
  <path id="大象_1" data-name="大象 1" class="cls-1" d="M21.494,0L21.88,0.258,20.721,1.417,20.464,1.16,20.721,0.9Zm-1.544.129h0.386l-0.258.386a4.354,4.354,0,0,1-1.8,1.8L18.019,1.8A4.793,4.793,0,0,0,19.949.129Zm-1.8.129H18.4l-0.257.515a2.607,2.607,0,0,1-2.445,0Zm4.762,0h0.643c-0.564.832-2.4,2.993-3.346,3.349C20.551,2.1,21.933,1.166,22.909.258Zm2.317,0.258L26,0.644l-0.257.129a1.887,1.887,0,0,1-1.673.644l0.257-.386Zm2.445,0.515L29.216,1.16V1.288a9.581,9.581,0,0,0-3.346,1.03L25.612,1.8H25.87ZM12.613,1.8l4.633,0.258V2.448h-1.03L11.841,2.19H12.1ZM23.167,2.061l0.515,0.258a4.308,4.308,0,0,1-1.8,1.8C22.119,3.144,22.771,2.864,23.167,2.061Zm-3.6.129h0.386a3.5,3.5,0,0,1-1.544,1.8,43.685,43.685,0,0,0-10.683.773c2.648-2.754,7.34-.2,10.554-1.417Zm9.009,0c3.188-.076,6.092.8,7.465,2.576V4.895C33.97,4.23,32.1,2.094,28.7,2.705L25.226,3.864V3.478Zm-3.732.258,0.386,0.515-1.544,1.03-0.257-.258L23.81,3.22Zm4.633,0.9c1.771-.093,3.631.075,4.119,1.288a16.856,16.856,0,0,0-5.921-.386c0.17-.493,0-0.268.386-0.515Zm-9.91,1.03,0.386,0.258-0.257.386c-2.225.655-5.411,0.1-8.108,0.258V4.766C13.966,4.7,18.251,5.524,19.563,4.38Zm6.95,0c0.389,0.249.208,0.026,0.386,0.515-2.523,1.035-3.427,4.284-5.92,5.539-4.5,2.266-11.5-2.68-13.257,3.735H7.207a4.546,4.546,0,0,1,1.673-2.319c3.474-3.463,7.4-.148,11.712-1.8C22.883,9.167,24.914,6.1,26.513,4.38Zm-5.148.129,0.386,0.258c-2.292,3.856-7.562.531-11.583,2.19a10.921,10.921,0,0,0-6.049,5.925L3.346,15.715l-0.257-.129C3.2,10.5,7.387,6.961,11.712,6.054,15.526,5.254,19.185,7.775,21.365,4.509Zm1.545,0L23.3,4.766l-0.257.258C20.027,11.548,8.023,4.012,5.405,13.4H4.891a8.77,8.77,0,0,1,9.4-6.054,12.457,12.457,0,0,0,4.891.258C20.769,7.212,22.073,5.7,22.909,4.509Zm1.673,0c0.376,0.489.319,0.466-.257,0.9C22.79,8.757,19.8,9.405,15.058,9.4c-1,0-2.5.176-3.089-.258L12.1,8.888C19.568,9.006,21.342,8.924,24.583,4.509Zm5.148,0,1.416,0.129L31.4,5.153c-7.947-.031-7,8.578-15.831,6.956l-0.129-.258,0.257-.258c6.044,1.685,7.65-3.426,10.554-5.667C27.265,5.146,28.453,5.11,29.731,4.509Zm4.376,0.386c3.592,0.862,3.185,6.232,2.317,9.532l-0.515-.258c0.945-2.356,1.2-5.433-.258-7.471Zm-23.939.129c0.541,0.2.315-.024,0.515,0.515A8.694,8.694,0,0,0,6.564,7.6C6.1,7.37,6.411,7.668,6.178,7.213A28.881,28.881,0,0,0,10.168,5.024Zm22.137,0a9.655,9.655,0,0,1,2.831,2.319L34.622,7.6c-0.528-1.1-1.691-1.455-2.445-2.319Zm4.119,0.129c2.341,1.1,3.048,7.087,1.287,9.4l-0.257-.129V14.3c0.5-1.851,1.173-4.315.386-6.44Zm-7.98.9c12.524-.385,2.672,14.628-2.188,15.714l-0.129-.515c2.674-.6,10.209-8.905,7.465-13.01-1.435-2.147-3.565-.908-5.277-1.932ZM27.157,6.7h0.386c-0.591,2.176-5.033,6.146-7.465,6.7-1.363.309-4.431,0.387-4.891-.644h0.129C21.517,14.612,24.938,9.784,27.157,6.7Zm2.059,0.644c3.683-.081,4.776,2.612,3.475,5.668-1.381,3.245-9.843,12.446-14.93,9.4,6.377,0.063,10.46-3.364,13-7.213,1.118-1.694,2.783-4.257,1.416-6.569C25.967,6.084,26.3,13.112,21.365,14.3l-0.129-.258,2.831-1.8C26.147,10.584,26.5,8.591,29.216,7.342Zm-23.81.515H5.792c-0.677,2.132-2.83,2.95-3.218,5.667H2.059V13.01A19.411,19.411,0,0,1,5.405,7.858ZM35.136,8.244L35.651,8.5c0.284,2.885-.056,7.079-2.188,7.857V15.972A11.545,11.545,0,0,0,35.136,8.244Zm-5.663.129a1.923,1.923,0,0,1,2.059.9c2.061,2.126-2.172,7.14-3.346,7.986L27.8,17.132V17c1.111-.8,5.025-5.4,3.475-7.342A2.637,2.637,0,0,0,30.5,8.888c-2.795.035-3.4,2.591-5.019,3.864H25.355V12.237C26.877,10.947,27.638,9.438,29.473,8.373Zm9.91,0.386L39.77,8.888A20.567,20.567,0,0,1,39.9,13.4l-0.515-.129V8.759Zm-28.83.515,0.515,0.258L10.94,9.79A7.631,7.631,0,0,0,6.564,20.223L8.237,22.67c-1.3-.4-1.7-1.712-2.188-2.963C3.953,14.319,7.513,11.527,10.554,9.274Zm18.92,0.386L30.117,9.79,30.889,10.3a3.391,3.391,0,0,1-.386,2.19H30.117l-0.129-.258a1.6,1.6,0,0,0,.129-2.061H29.988c-2,.408-3.052,3.358-4.5,4.508l-3.346,2.061L21.88,16.23C25.411,15.1,26.965,11.833,29.473,9.661Zm-0.129,1.417,0.386,0.386c-2.747,3.171-5.276,7.027-10.94,7.213V18.162C23.841,18.117,27.351,14.324,29.345,11.078Zm-16.732.258,1.673,0.129,0.129,0.386c-5.908-.193-6.592,4.278-4.762,8.372l-0.644-.129C6.984,15.24,8.507,13.219,12.613,11.335Zm28.444,0.9c0.859,1.4-.384,4.8-1.544,5.152C39.912,15.81,40.61,14.115,41.057,12.237Zm-28.315.386a2.6,2.6,0,0,1,1.931.386v0.129c-4.139-.149-6.88,3.852-3.732,6.44,4.681,3.848,12.622.4,16.088-1.932l0.257,0.515c-3.395,1.527-7.053,4.7-12.742,3.478C8.931,20.438,7.063,15.3,12.742,12.623Zm16.474,0.515h0.515c-0.369,1.811-7.112,7.694-8.623,6.183C24.078,18.576,28.448,16.018,29.216,13.139Zm-4.762.129H24.84v0.515c-1.7.785-3,1.9-5.277,2.319l-6.821-.129a0.954,0.954,0,0,0,0,1.159c0.882,0.964,4.594.427,5.148,1.546H15.959a16.525,16.525,0,0,1-3.732-1.159,1.815,1.815,0,0,1,.644-2.19C17.109,15.631,22.268,16.036,24.454,13.267ZM1.93,14.04l0.386,0.129A12.854,12.854,0,0,0,4.762,24.345v0.129H4.247C2.724,22.153.432,18.116,1.93,14.04Zm2.574,0H4.891L5.019,14.3C2.3,18.348,7.271,23.57,9.4,24.86l-0.129.258H8.752C6.084,22.044,2.729,20.151,4.5,14.04Zm7.851,0c3.449,0.184,5.008.586,8.108,0l-0.129.515c-2.683.675-7.219-.558-9.009,0.9L11.069,15.2A3.057,3.057,0,0,1,12.356,14.04ZM39.126,14.3l0.257,0.129A13.362,13.362,0,0,1,33.849,22.8H33.463l1.673-1.674,1.931-2.447ZM6.95,14.684l0.515,0.258c-1.449,4.042,1.6,7.287,4.891,7.986v0.129H12.1l-0.386.258C8.43,21.416,6.139,19.91,6.95,14.684Zm30.117,0.386,0.386,0.258c-0.916,2.931-3.619,5.84-5.92,7.471l-0.257-.515C33.727,21.141,36.006,17.623,37.067,15.071Zm-1.673.258,0.515,0.258a12.216,12.216,0,0,1-2.832,3.735H32.691V19.193C33.549,17.855,34.837,16.992,35.394,15.328ZM41.7,15.457l0.257,0.129c-0.1,1.664-.951,2.635-1.416,3.993l-0.515-.258Zm7.851,0.129,0.386,0.129A29.685,29.685,0,0,1,47.749,23.7l-0.515-.258C48.534,21.2,48.643,18.472,49.551,15.586Zm1.287,0,0.515,0.258L51.224,17H50.838V15.586Zm-40.027.129,0.515,0.258c-1.308,4.453,5.75,3.884,8.881,3.349l0.129,0.515C16,20.12,10.018,20.963,10.811,15.715Zm37.324,0.644c0.407,0.194-.074,1.556-0.129,2.19l-0.515-.258A5.963,5.963,0,0,1,48.136,16.359Zm-45.047.129c0.8,0.65.5,3.241,0.9,4.251,0.967,2.427,2.842,3.348,4.5,5.024l-0.257.258C5.721,24.7,1.9,20.837,3.089,16.488Zm10.3,0.129a65.974,65.974,0,0,0,7.851,0l0.129,0.129-0.257.386C19.359,17.335,14.244,18.327,13.385,16.616Zm19.306,0.515,0.386,0.258c-2.4,3.343-6.07,6.838-10.94,7.6l-0.129-.258V24.6C26.652,23.7,30.331,20.421,32.691,17.132Zm-32.434.515,1.03,3.993a14.775,14.775,0,0,0,5.792,6.44l-0.257.258A11.55,11.55,0,0,1,.257,17.647Zm50.324,0.129,0.257,0.258H50.452Zm-11.712.773h0.386l0.129,0.258-1.287,1.8-0.257-.129Zm2.96,0.515h0.386v0.515l-2.96,3.864L39,23.186l0.386-.387Zm5.148,0.9,0.386,0.258-0.386,1.288-0.257-.129V21.254Zm-15.187.129c0.389,0.249.208,0.026,0.386,0.515-1.216.931-7.31,6.5-9.138,5.281L26,24.731A18,18,0,0,0,31.79,20.094Zm7.722,0.129H39.9l-0.257.515L38.1,22.928H37.968L37.71,22.8a1.279,1.279,0,0,1,.644-0.9Zm-29.345.258L12.1,21.64l2.7,0.644c-2.018.482-3.308-.514-4.633-1.417V20.481Zm32.3,0.129a1.06,1.06,0,0,1-.257,1.159v0.258H41.7Zm-5.406.258h0.386l0.129,0.258a3.812,3.812,0,0,1-1.544,1.417A5.426,5.426,0,0,1,37.067,20.867Zm12.742,0.258c0.744,1.779-1.4,4.634-2.445,5.281C47.828,24.656,49.157,22.991,49.809,21.125Zm-24.84.9,0.515,0.258a4.631,4.631,0,0,1-2.317.9l-0.129-.258Zm18.019,0.129L43.5,22.413c-0.771,1.13-1.364,2.529-2.445,3.349L40.8,25.5l0.386-.386Zm3.218,0.258h0.257A11.886,11.886,0,0,1,43.5,27.05l-0.386-.129V26.792Zm-46.076.129,2.317,3.735,3.089,2.7v0.129C3.4,28.64-.117,24.862.129,22.542ZM8.752,22.67l1.8,1.288v0.129H10.039A1.844,1.844,0,0,1,8.752,22.67Zm35.523,0,0.386,0.258-0.515.258Zm-3.218.129h0.386l0.129,0.258-1.931,2.319H39.512l-0.129-.258Zm-19.177.129,0.643,0.258-0.129.258c-0.88.147-1.59,0.473-2.188-.129ZM30.5,23.057l0.386,0.258-0.257.386c-1.634.676-2.61,2.131-4.5,2.576L26,26.019V25.891A13.218,13.218,0,0,0,30.5,23.057Zm2.188,0.386c0.273,0.3.057-.015,0.129,0.386-1.2,1.25-3.159,3.148-5.02,3.607C28.439,25.778,31.464,24.681,32.691,23.443Zm5.921,0.129L39,23.83l-0.515.515-0.258-.258ZM43.5,23.958a0.879,0.879,0,0,1,.257.644l-1.673,2.061H41.7l0.515-.644Zm3.346,0.129,0.386,0.129A3.643,3.643,0,0,1,45.3,27.05l0.257-.515Zm-41.829.644A6.63,6.63,0,0,1,7.593,27.05a5.443,5.443,0,0,1-2.7-2.061Zm-4.891.9L2.96,28.724l3.6,2.576v0.129C4.795,31.185.069,27.076,0.129,25.633Zm31.79,0.258H32.3a3.342,3.342,0,0,1-2.059,1.675l-0.257-.258,0.129-.258Zm-7.207.773,0.515,0.258-0.9.515-0.515-.258Zm1.931,0.9,0.515,0.258-0.129.258c-0.733.3-1.85,1.033-2.574,0.515V28.467A4.908,4.908,0,0,0,26.642,27.565Zm2.445,0.129L29.6,27.951l-4.5,2.19-0.257-.515Zm2.188,0.129h0.386c-0.468,1.3-4.1,2.911-5.534,3.22L26,30.785l0.129-.258Zm-31.147.129a0.462,0.462,0,0,1,.257.386H0.129V27.951Zm0.644,0.9,3.861,2.962H3.99C2.956,31.194,1.155,30.087.772,28.853Zm31.275,0.129L32.3,29.24l-0.257.386-1.287.515-0.129-.258,0.129-.258Zm-2.574,1.159c0.39,0.249.208,0.026,0.386,0.515-0.876.381-1.872,1.5-3.089,1.03h0.257Zm2.574,0c0.266,0.253.133,0.048,0.257,0.515L30.76,31.816H29.988l0.129-.258ZM0.129,30.27l1.03,1.03L0.9,31.558,0,30.528Zm1.544,1.417a0.49,0.49,0,0,1,.257.258Z"/>
  <path id="eleSystem" class="cls-1" d="M56.553,12.748a1.8,1.8,0,0,1,.816.131,1.13,1.13,0,0,1,.437.532,5.641,5.641,0,0,1,.269,1.281H58.3L58.213,12.1H52.169v0.322h0.278a0.744,0.744,0,0,1,.694.349,3.678,3.678,0,0,1,.15,1.386V21.84a6.119,6.119,0,0,1-.066,1.142,0.707,0.707,0,0,1-.252.418,0.826,0.826,0,0,1-.526.2H52.169v0.322h6.044l0.677-2.963H58.658a7.5,7.5,0,0,1-.734,1.63,1.511,1.511,0,0,1-.578.549,2.454,2.454,0,0,1-.966.139h-1.33a0.7,0.7,0,0,1-.44-0.1,0.531,0.531,0,0,1-.162-0.27,5.4,5.4,0,0,1-.046-0.954v-3.9h1.724a1.234,1.234,0,0,1,.729.174,0.964,0.964,0,0,1,.341.479,6.486,6.486,0,0,1,.162,1.107h0.214V15.7H57.357a2.6,2.6,0,0,1-.335,1.412,1.064,1.064,0,0,1-.9.305H54.4V12.748h2.151Zm9.034,9.514a1.852,1.852,0,0,1-.665.71,2.84,2.84,0,0,1-1.267.2H63.083a2.532,2.532,0,0,1-.9-0.087,0.516,0.516,0,0,1-.214-0.27,3.547,3.547,0,0,1-.093-0.994V14.4a5.638,5.638,0,0,1,.093-1.334,0.92,0.92,0,0,1,.344-0.462,1.514,1.514,0,0,1,.876-0.174V12.1H59.636v0.322h0.3a0.731,0.731,0,0,1,.671.383,3.513,3.513,0,0,1,.162,1.386v7.627a4.115,4.115,0,0,1-.121,1.29,0.731,0.731,0,0,1-.711.488h-0.3v0.322h6.073l0.671-3.208-0.191-.061A7,7,0,0,1,65.587,22.262ZM71.5,12.748a1.8,1.8,0,0,1,.816.131,1.13,1.13,0,0,1,.437.532,5.637,5.637,0,0,1,.269,1.281h0.226L73.158,12.1H67.114v0.322h0.278a0.744,0.744,0,0,1,.694.349,3.678,3.678,0,0,1,.15,1.386V21.84a6.116,6.116,0,0,1-.067,1.142,0.706,0.706,0,0,1-.252.418,0.826,0.826,0,0,1-.526.2H67.114v0.322h6.044l0.677-2.963H73.6a7.489,7.489,0,0,1-.735,1.63,1.51,1.51,0,0,1-.578.549,2.454,2.454,0,0,1-.966.139h-1.33a0.7,0.7,0,0,1-.439-0.1,0.531,0.531,0,0,1-.162-0.27,5.4,5.4,0,0,1-.046-0.954v-3.9H71.07a1.234,1.234,0,0,1,.729.174,0.964,0.964,0,0,1,.341.479,6.49,6.49,0,0,1,.162,1.107h0.214V15.7H72.3a2.6,2.6,0,0,1-.335,1.412,1.064,1.064,0,0,1-.9.305H69.346V12.748H71.5Zm8.062-.915a1.391,1.391,0,0,1-.153.545,0.289,0.289,0,0,1-.246.135A1.057,1.057,0,0,1,78.7,12.3a2.429,2.429,0,0,0-1.325-.462,1.947,1.947,0,0,0-1.648.92,3.708,3.708,0,0,0-.648,2.192,3.934,3.934,0,0,0,.22,1.342,3.636,3.636,0,0,0,.645,1.116,12.647,12.647,0,0,0,1.431,1.355,14.6,14.6,0,0,1,1.232,1.111,2.57,2.57,0,0,1,.495.828,2.6,2.6,0,0,1,.159.88,2.246,2.246,0,0,1-.419,1.36,1.339,1.339,0,0,1-1.142.575,1.8,1.8,0,0,1-1.148-.418,2.53,2.53,0,0,1-.778-1.05,7.894,7.894,0,0,1-.4-1.9H75.159v4.053h0.214a1.4,1.4,0,0,1,.124-0.54,0.259,0.259,0,0,1,.228-0.131,2.459,2.459,0,0,1,.714.274,4.958,4.958,0,0,0,.743.318,2.534,2.534,0,0,0,.642.078,2.1,2.1,0,0,0,1.778-.972,3.889,3.889,0,0,0,.691-2.314,4.211,4.211,0,0,0-.217-1.351,3.381,3.381,0,0,0-.619-1.12,12.212,12.212,0,0,0-1.5-1.364,7.139,7.139,0,0,1-1.706-1.743A1.983,1.983,0,0,1,76,14.344a2.12,2.12,0,0,1,.393-1.26,1.179,1.179,0,0,1,.995-0.553,1.605,1.605,0,0,1,1.029.41,2.619,2.619,0,0,1,.766,1.107,7.092,7.092,0,0,1,.373,1.874h0.214V11.833H79.56Zm7.253,0.593a0.823,0.823,0,0,1,.468.109,0.7,0.7,0,0,1,.24.3,1.078,1.078,0,0,1,.084.436,3.558,3.558,0,0,1-.347,1.22L85.72,18.135l-1.637-3.809a3.57,3.57,0,0,1-.353-1.133,0.709,0.709,0,0,1,.228-0.575,0.762,0.762,0,0,1,.5-0.192h0.174V12.1H81.278v0.322a0.551,0.551,0,0,1,.335.087,2.148,2.148,0,0,1,.564.523,11.442,11.442,0,0,1,.518,1.09l2.151,4.951v2.8a3.858,3.858,0,0,1-.127,1.273,0.721,0.721,0,0,1-.706.453H83.736v0.322h3.331V23.6H86.813a0.75,0.75,0,0,1-.694-0.366,3.368,3.368,0,0,1-.162-1.36V18.911l1.891-4.489a8.545,8.545,0,0,1,.584-1.22,1.96,1.96,0,0,1,.526-0.575,0.909,0.909,0,0,1,.44-0.2h0.15V12.1H86.813v0.322Zm8.363-.593a1.389,1.389,0,0,1-.153.545,0.289,0.289,0,0,1-.246.135A1.057,1.057,0,0,1,94.32,12.3,2.429,2.429,0,0,0,93,11.833a1.947,1.947,0,0,0-1.648.92,3.708,3.708,0,0,0-.648,2.192,3.934,3.934,0,0,0,.22,1.342,3.634,3.634,0,0,0,.645,1.116A12.659,12.659,0,0,0,93,18.758a14.621,14.621,0,0,1,1.232,1.111,2.572,2.572,0,0,1,.495.828,2.6,2.6,0,0,1,.159.88,2.246,2.246,0,0,1-.419,1.36,1.339,1.339,0,0,1-1.142.575,1.8,1.8,0,0,1-1.148-.418,2.531,2.531,0,0,1-.778-1.05,7.894,7.894,0,0,1-.4-1.9H90.774v4.053h0.214a1.4,1.4,0,0,1,.124-0.54,0.259,0.259,0,0,1,.228-0.131,2.459,2.459,0,0,1,.714.274,4.958,4.958,0,0,0,.743.318,2.534,2.534,0,0,0,.642.078,2.1,2.1,0,0,0,1.778-.972,3.889,3.889,0,0,0,.691-2.314,4.214,4.214,0,0,0-.217-1.351,3.383,3.383,0,0,0-.619-1.12,12.22,12.22,0,0,0-1.5-1.364,7.139,7.139,0,0,1-1.706-1.743,1.983,1.983,0,0,1-.249-0.985,2.12,2.12,0,0,1,.393-1.26,1.179,1.179,0,0,1,.995-0.553,1.605,1.605,0,0,1,1.029.41,2.619,2.619,0,0,1,.766,1.107,7.1,7.1,0,0,1,.373,1.874H95.39V11.833H95.176Zm2.059,0.27-0.093,2.772h0.22a3.567,3.567,0,0,1,.254-1.273,1.308,1.308,0,0,1,.515-0.636,1.8,1.8,0,0,1,.781-0.122h0.943v9.03a3.858,3.858,0,0,1-.127,1.273,0.721,0.721,0,0,1-.706.453H98.744v0.322h3.326V23.6H101.8a0.735,0.735,0,0,1-.677-0.366,3.488,3.488,0,0,1-.156-1.36v-9.03h1.1a1.214,1.214,0,0,1,.784.24,1.637,1.637,0,0,1,.477.745,4.76,4.76,0,0,1,.173,1.046h0.22L103.637,12.1h-6.4Zm11.648,0.645a1.8,1.8,0,0,1,.815.131,1.127,1.127,0,0,1,.437.532,5.658,5.658,0,0,1,.269,1.281h0.226L110.543,12.1H104.5v0.322h0.277a0.743,0.743,0,0,1,.694.349,3.656,3.656,0,0,1,.151,1.386V21.84a6.041,6.041,0,0,1-.067,1.142,0.706,0.706,0,0,1-.251.418,0.828,0.828,0,0,1-.527.2H104.5v0.322h6.044l0.676-2.963h-0.231a7.512,7.512,0,0,1-.734,1.63,1.507,1.507,0,0,1-.579.549,2.451,2.451,0,0,1-.966.139h-1.33a0.694,0.694,0,0,1-.439-0.1,0.52,0.52,0,0,1-.162-0.27,5.358,5.358,0,0,1-.047-0.954v-3.9h1.724a1.236,1.236,0,0,1,.729.174,0.967,0.967,0,0,1,.341.479,6.475,6.475,0,0,1,.162,1.107H109.9V15.7h-0.214a2.592,2.592,0,0,1-.336,1.412,1.063,1.063,0,0,1-.9.305h-1.724V12.748h2.152Zm7.883,11.174,3.025-9.945v7.9a3.883,3.883,0,0,1-.127,1.273,0.715,0.715,0,0,1-.706.453H118.68v0.322h3.332V23.6H121.74a0.727,0.727,0,0,1-.677-0.366,3.368,3.368,0,0,1-.162-1.36V14.152a3.845,3.845,0,0,1,.128-1.273,0.724,0.724,0,0,1,.711-0.453h0.272V12.1h-2.221l-2.8,9.248L114.146,12.1h-2.221v0.322a1.136,1.136,0,0,1,.7.17,0.866,0.866,0,0,1,.3.423,3.963,3.963,0,0,1,.115,1.133v7.723a3.854,3.854,0,0,1-.127,1.273,0.722,0.722,0,0,1-.706.453h-0.277v0.322h2.73V23.6h-0.278a0.728,0.728,0,0,1-.677-0.366,3.488,3.488,0,0,1-.156-1.36v-7.9l3.031,9.945h0.191Z"/>
</svg>
